<svg viewBox="0 0 36 34" fill="none" xmlns="http://www.w3.org/2000/svg">
    <path
        d="M35.452 10.85l-5.216-3.28-1.895-1.197-3.78-2.333-1.884-1.236L18.449.142l-.22-.09a.938.938 0 00-.618 0l-.11.05-4.278 2.702-1.885 1.236L7.56 6.373 5.664 7.57.45 10.85a.936.936 0 00-.449.797v21.416A.997.997 0 00.997 34h34.006a.997.997 0 00.997-.937V11.647a.937.937 0 00-.548-.797zM1.885 32.116v-19.94l3.78-2.383v22.323h-3.78zm5.674 0V8.606l3.78-2.382v25.922l-3.78-.03zm5.664-27.079l3.78-2.382v29.46h-3.78V5.038zm5.724 27.079V2.655l3.73 2.382v27.079h-3.73zm5.665 0V6.194l3.78 2.383v23.539h-3.78zm9.453 0h-3.829V9.793l3.78 2.383.05 19.94z"
        fill="currentColor"/>
</svg>
