<svg width="1em" height="1em" viewBox="0 0 1 1" fill="none" xmlns="http://www.w3.org/2000/svg">
    <path fill-rule="evenodd" clip-rule="evenodd"
          d="M0.939844 0.205078V0.163411C0.939844 0.116745 0.899219 0.0800781 0.855469 0.0800781C0.811719 0.0800781 0.772135 0.116745 0.772135 0.163411V0.205078H0.740469C0.734948 0.205078 0.730469 0.209555 0.730469 0.215078V0.403411C0.730469 0.408934 0.734948 0.413411 0.740469 0.413411H0.970469C0.975994 0.413411 0.980469 0.408934 0.980469 0.403411V0.215078C0.980469 0.209555 0.975994 0.205078 0.970469 0.205078H0.939844ZM0.897135 0.205078H0.813802V0.163411C0.813802 0.139602 0.833248 0.121745 0.855469 0.121745C0.87769 0.121745 0.897135 0.139602 0.897135 0.163411V0.205078Z"
          fill="currentColor"/>
    <path
        d="M0.643934 0.291667C0.649454 0.291667 0.653934 0.296144 0.653934 0.301667V0.365C0.653934 0.370523 0.649454 0.375 0.643934 0.375H0.392702L0.348536 0.624999H0.4406V0.708333H0.333934L0.307402 0.857807C0.305637 0.867753 0.296991 0.874999 0.286889 0.874999H0.245874C0.232911 0.874999 0.223096 0.863291 0.225361 0.850524L0.250601 0.708333H0.10873C0.0957872 0.708333 0.0859772 0.696658 0.0882081 0.683908L0.0954997 0.642241C0.0972443 0.632274 0.105901 0.624999 0.116021 0.624999H0.265184L0.309351 0.375H0.16748C0.154537 0.375 0.144727 0.363324 0.146958 0.350575L0.15425 0.308909C0.155994 0.29894 0.164651 0.291667 0.174771 0.291667H0.323934L0.350466 0.142193C0.352231 0.132247 0.360877 0.125 0.370978 0.125H0.411993C0.424954 0.125 0.434771 0.136711 0.432504 0.149475L0.407267 0.291667H0.643934Z"
        fill="currentColor"/>
    <path
        d="M0.559531 0.540039C0.53744 0.540039 0.519531 0.557947 0.519531 0.580039V0.842594C0.519531 0.864686 0.53744 0.882594 0.559531 0.882594H0.599531C0.605056 0.882594 0.609531 0.887069 0.609531 0.892594V0.977532C0.609531 0.986198 0.619806 0.990761 0.626235 0.984948L0.72811 0.892915C0.73546 0.886269 0.745019 0.882594 0.754923 0.882594H0.939531C0.961623 0.882594 0.979531 0.864686 0.979531 0.842594V0.580039C0.979531 0.557947 0.961623 0.540039 0.939531 0.540039H0.559531Z"
        fill="currentColor"/>
</svg>
