<svg width="1em" height="1em" viewBox="0 0 24 24" fill="none" xmlns="http://www.w3.org/2000/svg">
    <path fill-rule="evenodd" clip-rule="evenodd"
          d="M11.9641 3.05925C12.5197 2.53941 13.2521 2.25014 14.0131 2.25H19.1251C19.8213 2.25 20.4889 2.52656 20.9812 3.01884C21.4735 3.51113 21.7501 4.17881 21.7501 4.875V9.94275C21.7501 10.3368 21.6725 10.727 21.5216 11.0911C21.3708 11.4551 21.1497 11.7859 20.8711 12.0645L19.9234 13.0122C19.8389 13.0041 19.7533 13 19.6667 13H14.6667C13.1939 13 12 14.1939 12 15.6667V20.6667C12 20.7533 12.0041 20.8389 12.0122 20.9234L12.0038 20.9318C11.406 21.5294 10.5954 21.8652 9.75006 21.8652C8.90476 21.8652 8.09407 21.5294 7.49631 20.9318L2.75181 16.1873C2.44945 15.885 2.21098 15.525 2.05061 15.1287C1.89024 14.7323 1.81124 14.3078 1.81831 13.8803C1.82537 13.4528 1.91837 13.0311 2.09175 12.6403C2.26514 12.2495 2.51537 11.8976 2.82756 11.6055L11.9641 3.06V3.05925ZM16.8751 9C17.3723 9 17.8493 8.80246 18.2009 8.45083C18.5525 8.09919 18.7501 7.62228 18.7501 7.125C18.7501 6.62772 18.5525 6.15081 18.2009 5.79917C17.8493 5.44754 17.3723 5.25 16.8751 5.25C16.3778 5.25 15.9009 5.44754 15.5492 5.79917C15.1976 6.15081 15.0001 6.62772 15.0001 7.125C15.0001 7.62228 15.1976 8.09919 15.5492 8.45083C15.9009 8.80246 16.3778 9 16.8751 9Z"
          fill="currentColor"/>
    <path fill-rule="evenodd" clip-rule="evenodd"
          d="M14.6667 14H17.1667H17.7041H19.6667C20.5871 14 21.3333 14.7462 21.3333 15.6667V18.1667L21.3333 20.6667C21.3333 21.5871 20.5871 22.3333 19.6667 22.3333H14.6667C13.7462 22.3333 13 21.5871 13 20.6667V15.6667C13 14.7462 13.7462 14 14.6667 14ZM16.3333 16.5C16.3333 16.0397 15.9597 15.6667 15.5 15.6667C15.0393 15.6667 14.6667 16.0397 14.6667 16.5C14.6667 16.9607 15.0393 17.3333 15.5 17.3333C15.9597 17.3333 16.3333 16.9607 16.3333 16.5ZM15.9167 19L14.6667 20.6667H19.6667L18.4167 17.75L16.75 19.8333L15.9167 19Z"
          fill="currentColor"/>
</svg>
