<svg width="1em" height="1em" viewBox="0 0 1 1" fill="none" xmlns="http://www.w3.org/2000/svg">
    <g clip-path="url(#clip0)">
        <path
            d="M0.09375 0.34375H0.65625V0.46875H0.09375V0.34375ZM0.125 0.5H0.624998V0.90625H0.125V0.5ZM0.296875 0.59375C0.292731 0.59375 0.288757 0.595396 0.285826 0.598326C0.282896 0.601257 0.28125 0.605231 0.28125 0.609375V0.65625H0.46875V0.609375C0.46875 0.605231 0.467104 0.601257 0.464174 0.598326C0.461243 0.595396 0.457269 0.59375 0.453125 0.59375H0.296875Z"
            fill="currentColor"/>
    </g>
    <path d="M0.761068 0.0808919L0.669434 0.291504H0.619792L0.711589 0.0926107H0.59375V0.0545247H0.761068V0.0808919Z"
          fill="currentColor"/>
    <path
        d="M0.78597 0.202148C0.78597 0.174696 0.792101 0.152832 0.804362 0.136556C0.816732 0.12028 0.833605 0.112142 0.85498 0.112142C0.872125 0.112142 0.886285 0.118544 0.897461 0.131348V0.0415039H0.944661V0.291504H0.902181L0.899902 0.272786C0.888184 0.287435 0.873101 0.294759 0.854655 0.294759C0.83393 0.294759 0.817274 0.286621 0.804687 0.270345C0.792209 0.253961 0.78597 0.231228 0.78597 0.202148ZM0.833008 0.205566C0.833008 0.222059 0.835883 0.234701 0.841634 0.24349C0.847385 0.252279 0.85574 0.256673 0.866699 0.256673C0.881239 0.256673 0.891493 0.250543 0.897461 0.238281V0.168783C0.891602 0.156521 0.881456 0.150391 0.867025 0.150391C0.844347 0.150391 0.833008 0.168783 0.833008 0.205566Z"
        fill="currentColor"/>
    <defs>
        <clipPath id="clip0">
            <rect width="0.75" height="0.75" fill="currentColor" transform="translate(0 0.25)"/>
        </clipPath>
    </defs>
</svg>
