<svg width="1em" height="1em" viewBox="0 0 1 1" fill="none" xmlns="http://www.w3.org/2000/svg">
    <g clip-path="url(#clip0)">
        <path
            d="M0.09375 0.34375H0.65625V0.46875H0.09375V0.34375ZM0.125 0.5H0.624998V0.90625H0.125V0.5ZM0.296875 0.59375C0.292731 0.59375 0.288757 0.595396 0.285826 0.598326C0.282896 0.601257 0.28125 0.605231 0.28125 0.609375V0.65625H0.46875V0.609375C0.46875 0.605231 0.467104 0.601257 0.464174 0.598326C0.461243 0.595396 0.457269 0.59375 0.453125 0.59375H0.296875Z"
            fill="currentColor"/>
    </g>
    <path
        d="M0.647298 0.152181H0.672363C0.684299 0.152181 0.693142 0.149197 0.698893 0.143229C0.704644 0.137261 0.70752 0.12934 0.70752 0.119466C0.70752 0.109918 0.704644 0.102485 0.698893 0.097168C0.693251 0.0918511 0.685438 0.0891927 0.675456 0.0891927C0.66645 0.0891927 0.658908 0.0916884 0.652832 0.0966797C0.646756 0.101563 0.643717 0.107964 0.643717 0.115885H0.59668C0.59668 0.103516 0.599989 0.0924479 0.606608 0.0826823C0.613336 0.0728082 0.622667 0.0651042 0.634603 0.0595703C0.646647 0.0540365 0.659885 0.0512695 0.674316 0.0512695C0.699382 0.0512695 0.719021 0.0572917 0.733236 0.0693359C0.74745 0.0812717 0.754557 0.0977648 0.754557 0.118815C0.754557 0.129666 0.751248 0.139648 0.744629 0.148763C0.73801 0.157878 0.729329 0.164876 0.718587 0.169759C0.731934 0.174533 0.741862 0.181695 0.748372 0.191243C0.754991 0.200792 0.758301 0.212077 0.758301 0.225098C0.758301 0.246148 0.750597 0.263021 0.735189 0.275716C0.719889 0.288411 0.699599 0.294759 0.674316 0.294759C0.650662 0.294759 0.631293 0.28852 0.616211 0.276042C0.601237 0.263563 0.59375 0.24707 0.59375 0.226563H0.640788C0.640788 0.23546 0.644097 0.24273 0.650716 0.248372C0.657444 0.254015 0.66569 0.256836 0.675456 0.256836C0.686632 0.256836 0.695367 0.253906 0.70166 0.248047C0.708062 0.242079 0.711263 0.234212 0.711263 0.224447C0.711263 0.200792 0.698242 0.188965 0.672201 0.188965H0.647298V0.152181Z"
        fill="currentColor"/>
    <path
        d="M0.785482 0.202148C0.785482 0.174696 0.791612 0.152832 0.803874 0.136556C0.816243 0.12028 0.833116 0.112142 0.854492 0.112142C0.871636 0.112142 0.885796 0.118544 0.896973 0.131348V0.0415039H0.944173V0.291504H0.901693L0.899414 0.272786C0.887695 0.287435 0.872613 0.294759 0.854167 0.294759C0.833442 0.294759 0.816786 0.286621 0.804199 0.270345C0.791721 0.253961 0.785482 0.231228 0.785482 0.202148ZM0.83252 0.205566C0.83252 0.222059 0.835395 0.234701 0.841146 0.24349C0.846897 0.252279 0.855252 0.256673 0.866211 0.256673C0.880751 0.256673 0.891005 0.250543 0.896973 0.238281V0.168783C0.891113 0.156521 0.880968 0.150391 0.866536 0.150391C0.843858 0.150391 0.83252 0.168783 0.83252 0.205566Z"
        fill="currentColor"/>
    <defs>
        <clipPath id="clip0">
            <rect width="0.75" height="0.75" fill="currentColor" transform="translate(0 0.25)"/>
        </clipPath>
    </defs>
</svg>
